<?xml version="1.0" encoding="UTF-8" standalone="no"?>
<svg
   xmlns:dc="http://purl.org/dc/elements/1.1/"
   xmlns:cc="http://creativecommons.org/ns#"
   xmlns:rdf="http://www.w3.org/1999/02/22-rdf-syntax-ns#"
   xmlns:svg="http://www.w3.org/2000/svg"
   xmlns="http://www.w3.org/2000/svg"
   viewBox="0 0 606.66669 201.33333"
   height="201.33333"
   width="606.66669"
   xml:space="preserve"
   id="svg2"
   version="1.1"><metadata
     id="metadata8"><rdf:RDF><cc:Work
         rdf:about=""><dc:format>image/svg+xml</dc:format><dc:type
           rdf:resource="http://purl.org/dc/dcmitype/StillImage" /></cc:Work></rdf:RDF></metadata><defs
     id="defs6" /><g
     transform="matrix(1.3333333,0,0,-1.3333333,0,201.33333)"
     id="g10"><g
       transform="scale(0.1)"
       id="g12"><path
         id="path14"
         style="fill:#4c4c4c;fill-opacity:1;fill-rule:evenodd;stroke:none"
         d="m 2475.9,1394.8 c 17.62,-19.18 30.7,-39.72 39.18,-61.6 8.55,-16.01 18.94,-31.17 31.25,-45.54 17.58,15.43 37.07,28.47 58.36,39.18 9.65,8 19.76,12.22 30.39,12.81 6.95,-12.31 3.98,-24.34 -8.75,-36.02 -12.81,-13.86 -24.3,-30.19 -34.42,-48.79 -10.62,-19.22 -28.28,-27.18 -52.81,-24.02 -29.33,12.81 -51.68,33.32 -67.19,61.56 -31.44,56.02 -59.76,113.64 -84.8,172.82 36.8,-14.93 66.41,-38.36 88.79,-70.4 M 1947.11,978.051 c -38.36,-11.762 -72.46,-29.653 -102.34,-53.641 -11.76,-6.949 -20.55,-15.699 -26.37,-26.359 -27.27,-41.063 -58.2,-80.242 -92.81,-117.621 -34.69,-47.418 -70.71,-93.828 -108.01,-139.18 -3.75,-4.801 -9.88,-12.5 -18.44,-23.199 -9.06,-10.121 -16.72,-13.871 -23.16,-11.172 -3.21,5.312 -1.06,16.012 6.44,31.992 7.42,15.43 12.74,25.899 15.98,31.207 31.44,54.332 65.55,107.422 102.38,159.141 33.05,62.461 80.78,111.211 143.17,146.441 29.37,11.68 55.74,22.11 79.17,31.18 23.52,9.57 45.63,26.95 66.45,51.99 -51.21,43.2 -100.82,88.51 -148.83,136.01 -12.81,12.82 -29.29,37.54 -49.61,74.38 -19.68,36.8 -12.22,53.36 22.46,49.61 32,-11.17 58.36,-36.25 79.18,-75.2 20.24,-38.9 42.11,-70.15 65.59,-93.59 48.01,-30.94 88.01,-20.27 120,31.99 31.99,52.23 57.58,96.56 76.76,132.81 54.92,85.28 128.55,150.36 220.78,195.16 -22.35,-37.3 -50.12,-71.17 -83.17,-101.6 -36.25,-40.51 -70.11,-82.62 -101.64,-126.37 -31.99,-43.75 -63.67,-87.77 -95.15,-131.99 -26.64,-23.44 -41.06,-50.12 -43.21,-80 11.76,-16.56 10.71,-27.19 -3.16,-31.99 -15.51,1.05 -30.7,0.23 -45.62,-2.39 -12.82,-13.39 -25.9,-27.26 -39.18,-41.64 l -17.66,-15.969 m 500.78,16.789 c 22.97,30.94 49.88,61.57 80.82,92 30.39,30.39 68.01,39.76 112.81,28 28.79,-16.56 58.13,-31.75 87.97,-45.62 16.02,-3.2 30.63,-1.33 44.03,5.62 12.81,6.96 15.74,18.64 8.78,35.2 -19.72,34.1 -42.18,66.09 -67.22,95.98 -31.45,28.24 -52.27,61.64 -62.38,100 17.07,0.54 36.25,-9.89 57.61,-31.18 21.33,-21.4 37.58,-38.43 48.75,-51.21 25.08,-26.17 48.01,-52.3 68.83,-78.43 13.36,13.9 23.99,30.15 31.99,48.82 12.82,18.13 26.68,35.43 41.6,52 10.63,14.92 24.26,33.32 40.82,55.19 16.49,21.37 35.2,32.23 56.02,32.81 27.66,-5.31 33.28,-19.76 16.72,-43.2 -17.03,-23.48 -31.41,-40.55 -43.16,-51.17 -38.36,-41.64 -75.2,-84.81 -110.4,-129.61 -50.11,-67.19 -111.71,-81.06 -184.76,-41.64 -34.14,16.56 -63.44,16.83 -88.01,0.82 -24.57,-16.02 -46.68,-36.8 -66.37,-62.38 -54.45,-59.18 -102.18,-122.66 -143.24,-190.43 -20.74,-36.211 -42.93,-71.68 -66.37,-106.371 -8,-12.809 -19.18,-29.609 -33.63,-50.348 -14.37,-20.312 -29.57,-31.761 -45.55,-34.461 -1.64,20.821 3.99,42.149 16.8,64.032 12.77,21.359 25.08,40.539 36.76,57.617 29.37,57.031 62.42,111.992 99.22,164.801 0.51,3.16 1.56,6.09 3.2,8.75 16.49,21.371 31.99,41.371 46.37,60 l 11.99,14.41 m 677.58,241.57 c 40,-42.15 74.37,-90.63 103.2,-145.55 28.24,-54.96 54.92,-107.77 80,-158.438 20.78,-40 41.06,-80.231 60.78,-120.742 29.34,-59.258 56.25,-119.258 80.82,-180 5.32,-11.25 12.5,-26.91 21.57,-47.231 9.61,-20.269 13.36,-36.519 11.17,-48.75 -3.67,-9.058 -9.53,-5.621 -17.54,10.352 -20.27,27.777 -38.95,56.57 -56.02,86.371 -54.92,81.058 -108.55,162.93 -160.78,245.629 -33.63,55.429 -63.2,112.808 -88.83,171.989 -23.98,48.55 -44.8,98.67 -62.34,150.35 -5.39,16.56 -8.01,31.99 -8.01,46.45 0,14.92 9.89,13.55 29.57,-4.03 2.19,-2.11 4.3,-4.22 6.41,-6.4 M 1423.16,806.051 c -17.07,-21.871 -48.24,-63.43 -93.55,-124.801 -45.39,-60.82 -80.82,-90.391 -106.45,-88.828 8.6,14.457 16.84,29.879 24.85,46.449 52.22,76.789 103.71,153.859 154.41,231.168 66.13,98.121 134.92,194.101 206.37,287.971 34.1,47.46 77.03,85.62 128.79,114.37 15.43,-29.29 10.39,-61.29 -15.2,-95.97 -25.04,-34.65 -48.28,-62.39 -69.61,-83.21 -62.93,-76.25 -124.57,-153.552 -184.8,-231.95 -0.51,-2.66 0.27,-5.078 2.46,-7.191 l -47.27,-48.008" /><path
         id="path16"
         style="fill:#2485b5;fill-opacity:1;fill-rule:nonzero;stroke:none"
         d="m 212.578,354.449 c -12.738,13.641 -25.469,23.52 -38.277,29.692 -12.742,6.25 -26.723,9.379 -42.031,9.379 -17.821,0 -32.6216,-5.43 -44.3794,-16.25 -11.8008,-10.86 -17.6601,-24.34 -17.6601,-40.469 0,-13.871 4.5703,-26.492 13.75,-37.821 8.8281,-11.05 24.9295,-23.98 48.2895,-38.75 35.308,-22.609 60.191,-43.75 74.679,-63.429 14.379,-19.692 21.571,-42.66 21.571,-68.91 0,-35.5512 -12.622,-65.0824 -37.821,-88.5902 C 165.59,15.8594 134.02,4.14063 96.0195,4.14063 c -18.9882,0 -35.2382,1.37109 -48.75,4.05859 C 33.8281,10.8984 18.0898,16.0195 0.078125,23.5195 V 103.672 C 13.1992,87.1914 26.7188,75.1211 40.6992,67.4219 c 14.0703,-7.6211 29.461,-11.4024 46.25,-11.4024 21.1408,0 38.6408,6.0118 52.4998,18.1211 13.949,12.1875 20.942,27.3794 20.942,45.6294 0,15.82 -4.77,29.839 -14.219,42.031 -9.293,12.07 -25.942,25.777 -50.0001,41.09 -34.6133,21.757 -58.9024,42.07 -72.9727,60.941 -13.98045,18.75 -20.92967,40.188 -20.92967,64.367 0,33.52 12.73047,61.449 38.28127,83.75 25.6211,22.391 57.7305,33.602 96.3982,33.602 15.512,0 29.301,-1.41 41.41,-4.219 12.071,-2.742 23.481,-6.992 34.219,-12.812 z M 290.512,97.5781 V 220.859 c 0,16.02 -0.942,30.391 -2.813,43.121 -1.801,12.821 -5.078,27.391 -9.847,43.75 h 84.847 c -4.808,-9.492 -8.211,-20.621 -10.16,-33.429 -1.879,-12.742 -2.809,-30.551 -2.809,-53.442 V 97.5781 c 0,-23.1289 0.93,-41.0586 2.809,-53.75 1.949,-12.6172 5.352,-23.6679 10.16,-33.1289 h -84.847 c 4.769,9.0703 8.046,20 9.847,32.8203 1.871,12.6914 2.813,30.6993 2.813,54.0586 z m 28.117,334.2229 c 11.141,0 20.551,-4.5 28.281,-13.442 7.699,-8.871 11.57,-19.769 11.57,-32.66 0,-13.039 -3.871,-23.98 -11.57,-32.808 -7.73,-8.75 -17.14,-13.121 -28.281,-13.121 -11.168,0 -20.578,4.371 -28.277,13.121 -7.731,8.828 -11.563,19.769 -11.563,32.808 0,12.891 3.832,23.789 11.563,32.66 7.699,8.942 17.109,13.442 28.277,13.442 z" /><path
         id="path18"
         style="fill:#2485b5;fill-opacity:1;fill-rule:nonzero;stroke:none"
         d="m 546.801,4.14063 c -41.063,0 -74.692,13.66797 -100.942,41.08987 -26.168,27.3906 -39.218,62.5785 -39.218,105.6285 0,46.871 11.48,85.821 34.531,116.871 23.008,31.02 51.797,46.571 86.406,46.571 h 0.621 c 33.832,0 59.922,-11.801 78.281,-35.321 18.321,-23.429 27.5,-56.949 27.5,-100.46 V 151.641 H 469.449 c 2.891,-26.871 10.711,-49.301 23.442,-67.1918 16.25,-22.6094 38.32,-33.8984 66.25,-33.8984 12.5,0 24.839,1.5976 37.031,4.8398 12.269,3.3203 23.316,8.0078 33.129,14.0586 L 605.859,12.5781 C 592.93,9.14063 582.461,6.91016 574.449,5.85938 566.52,4.73047 557.301,4.14063 546.801,4.14063 Z m 38.59,188.91037 c -0.231,25.82 -5,45.539 -14.371,59.219 -9.379,13.628 -23.129,20.46 -41.25,20.46 h 0.308 c -19.687,0 -34.918,-8.39 -45.629,-25.148 -8.551,-13.441 -13.75,-31.641 -15.621,-54.531 z" /><path
         id="path20"
         style="fill:#2485b5;fill-opacity:1;fill-rule:nonzero;stroke:none"
         d="M 695.699,97.5781 V 220.859 c 0,16.02 -0.929,30.391 -2.808,43.121 -1.801,12.821 -5,27.391 -9.692,43.75 h 71.879 v -52.648 l 46.094,51.867 c 13.629,4.891 26.758,7.352 39.379,7.352 10.39,0 19.25,-2 26.558,-5.942 l -12.031,-64.058 -2.808,2.031 c -11.059,8.117 -24.219,12.188 -39.54,12.188 -11.359,0 -26.171,-4.18 -44.371,-12.5 l -13.281,-6.098 V 97.5781 c 0,-23.1289 0.942,-41.0586 2.813,-53.75 1.879,-12.6172 5.199,-23.6679 10,-33.1289 h -84.692 c 4.692,9.0703 7.973,20 9.852,32.8203 1.75,12.6914 2.648,30.6993 2.648,54.0586 z" /><path
         id="path22"
         style="fill:#2485b5;fill-opacity:1;fill-rule:nonzero;stroke:none"
         d="M 902.27,97.5781 V 220.859 c 0,16.02 -0.942,30.391 -2.821,43.121 -1.789,12.821 -5,27.391 -9.679,43.75 h 71.871 v -52.648 l 46.089,51.867 c 13.64,4.891 26.76,7.352 39.38,7.352 10.39,0 19.26,-2 26.56,-5.942 l -12.03,-64.058 -2.81,2.031 c -11.06,8.117 -24.22,12.188 -39.53,12.188 -11.37,0 -26.179,-4.18 -44.378,-12.5 l -13.281,-6.098 V 97.5781 c 0,-23.1289 0.937,-41.0586 2.808,-53.75 1.879,-12.6172 5.199,-23.6679 10,-33.1289 H 889.77 c 4.679,9.0703 7.96,20 9.839,32.8203 1.762,12.6914 2.661,30.6993 2.661,54.0586 z" /><path
         id="path24"
         style="fill:#2485b5;fill-opacity:1;fill-rule:nonzero;stroke:none"
         d="m 1175.9,4.14063 c -28.99,0 -51.33,6.21097 -67.03,18.58987 -15.63,12.3906 -23.44,30.039 -23.44,52.9687 0,15.3203 5.47,29.6918 16.41,43.1288 11.01,13.512 25.93,24.223 44.68,32.031 l 87.5,36.09 v 27.031 c 0,16.25 -5,29.141 -15,38.75 -10,9.571 -23.51,14.379 -40.47,14.379 -10.93,0 -21.52,-1.879 -31.71,-5.629 -10.24,-3.75 -21.41,-9.921 -33.6,-18.429 l 16.41,57.031 c 11.64,4.879 22.97,8.469 33.9,10.777 10.94,2.262 22.04,3.442 33.29,3.442 32.07,0 56.17,-8.403 72.34,-25.16 16.13,-16.801 24.22,-41.84 24.22,-75.161 V 97.5781 c 0,-24.8086 0.7,-43.5586 2.19,-56.25 1.56,-12.6172 4.37,-22.8086 8.43,-30.6289 h -70 V 39.1406 L 1187.93,4.76953 Z m 58.12,51.71877 v 81.7186 h -76.56 c -1.8,0 -4.06,-5.547 -6.87,-16.558 -2.82,-11.059 -4.22,-20.321 -4.22,-27.8208 0,-13.9804 4.53,-24.4883 13.59,-31.5586 9.14,-6.9922 22.85,-10.4687 41.09,-10.4687 11.25,0 22.07,1.5586 32.5,4.6875 z" /><path
         id="path26"
         style="fill:#2485b5;fill-opacity:1;fill-rule:nonzero;stroke:none"
         d="m 1557.77,134.77 v 180.152 c 0,26.758 -1.09,49.219 -3.28,67.348 -2.19,18.121 -6.09,37.031 -11.72,56.71 h 94.85 c -5.43,-19.179 -9.22,-37.89 -11.41,-56.089 -2.19,-18.243 -3.28,-40.903 -3.28,-67.969 v -58.59 h 181.87 v 58.59 c 0,26.758 -1.09,49.258 -3.28,67.5 -2.18,18.199 -6.09,37.066 -11.72,56.558 h 94.85 c -5.43,-19.179 -9.22,-37.89 -11.41,-56.089 -2.19,-18.243 -3.28,-40.903 -3.28,-67.969 V 134.77 c 0,-27 1.09,-49.6098 3.28,-67.8208 2.19,-18.2383 6.1,-36.9883 11.72,-56.25 h -94.84 c 5.39,18.9492 9.22,37.5391 11.4,55.7813 2.19,18.2109 3.28,40.9805 3.28,68.2895 v 67.031 H 1622.93 V 134.77 c 0,-27 1.09,-49.6098 3.28,-67.8208 2.19,-18.2383 6.09,-36.9883 11.72,-56.25 h -94.84 c 5.39,18.9492 9.21,37.5391 11.4,55.7813 2.19,18.2109 3.28,40.9805 3.28,68.2895 z" /><path
         id="path28"
         style="fill:#2485b5;fill-opacity:1;fill-rule:nonzero;stroke:none"
         d="m 2072.66,4.14063 c -37.5,0 -68.75,13.82817 -93.75,41.55857 -25,27.8203 -37.5,62.6988 -37.5,104.6918 0,46.949 13.9,86.019 41.71,117.191 27.82,31.129 62.54,46.719 104.22,46.719 37.7,0 68.99,-13.992 93.91,-41.879 24.88,-27.813 37.34,-62.652 37.34,-104.531 0,-47.11 -13.86,-86.1722 -41.56,-117.1918 C 2149.3,19.6484 2114.53,4.14063 2072.66,4.14063 Z m 32.03,41.55857 c 16.01,6.7617 28.75,19.1016 38.12,37.0313 9.38,17.8905 14.07,38.9105 14.07,62.9685 0,37.891 -9.15,68.281 -27.35,91.102 -18.24,22.89 -42.93,34.879 -74.06,35.929 -16.06,-6.558 -28.75,-18.898 -38.13,-37.031 -9.37,-18.121 -14.06,-39.219 -14.06,-63.277 0,-37.813 9.1,-68.121 27.34,-90.9415 18.21,-22.8086 42.9,-34.7617 74.07,-35.7813 z" /><path
         id="path30"
         style="fill:#2485b5;fill-opacity:1;fill-rule:nonzero;stroke:none"
         d="m 2347.3,4.14063 c -23.35,0 -40.39,6.91017 -51.09,20.78127 -10.62,13.8281 -15.94,35.9765 -15.94,66.4062 V 266.801 h -42.03 l 101.1,106.558 h 0.31 V 307.73 h 69.06 v -40.929 h -69.06 V 116.172 c 0,-20.0001 3.36,-35.0001 10.15,-45.0001 6.88,-9.9219 17.11,-14.8438 30.79,-14.8438 8.43,0 16.13,0.9727 23.12,2.9727 6.95,2.0703 15.39,5.6601 25.31,10.7773 l -23.59,-57.1875 c -10.31,-3.44138 -19.38,-5.69919 -27.19,-6.87107 -7.73,-1.25 -18.04,-1.8789 -30.94,-1.8789 z" /><path
         id="path32"
         style="fill:#2485b5;fill-opacity:1;fill-rule:nonzero;stroke:none"
         d="m 2744.57,134.77 v 257.96 c -22.62,-0.929 -41.99,-2.57 -58.12,-4.839 -31.57,-4.61 -57.58,-12.27 -77.97,-22.969 l 12.65,36.879 12.5,37.179 h 308.28 l -10.15,-35.308 -10.31,-35.313 c -25.24,9.45 -46.65,16.25 -64.22,20.313 -15.55,3.207 -31.41,5.16 -47.66,5.777 V 134.77 c 0,-24.809 1.25,-46.3286 3.75,-64.5395 2.5,-18.2422 6.8,-38.0821 12.97,-59.5313 h -98.13 c 6.25,20.9414 10.51,40.5117 12.82,58.75 2.38,18.211 3.59,39.9998 3.59,65.3208 z" /><path
         id="path34"
         style="fill:#2485b5;fill-opacity:1;fill-rule:nonzero;stroke:none"
         d="M 3040.59,220.859 V 110.23 c 0,-17.1792 3.94,-29.9605 11.87,-38.2808 7.89,-8.2383 19.92,-12.3398 36.09,-12.3398 13.01,0 28.52,3.5117 46.57,10.6211 l 9.84,3.9101 V 220.859 c 0,16.25 -0.94,30.7 -2.81,43.442 -1.8,12.808 -5.08,27.258 -9.85,43.429 h 84.85 c -4.81,-9.492 -8.2,-20.621 -10.16,-33.429 -1.87,-12.742 -2.81,-30.551 -2.81,-53.442 V 97.5781 c 0,-23.1289 0.94,-41.0586 2.81,-53.75 1.96,-12.6172 5.35,-23.6679 10.16,-33.1289 h -69.22 v 50.6289 l -46.72,-50.9375 c -16.99,-4.37107 -29.76,-6.56247 -38.28,-6.56247 -26.8,0 -47.11,7.07027 -60.94,21.24997 -13.87,14.2617 -20.78,35 -20.78,62.1914 V 220.859 c 0,16.02 -0.94,30.391 -2.81,43.121 -1.8,12.821 -5,27.391 -9.69,43.75 h 84.69 c -4.81,-9.492 -8.2,-20.582 -10.16,-33.281 -1.79,-12.808 -2.65,-30.699 -2.65,-53.59 z" /><path
         id="path36"
         style="fill:#2485b5;fill-opacity:1;fill-rule:nonzero;stroke:none"
         d="m 3282.58,332.582 c 0,19.367 -0.94,35.387 -2.81,48.117 -1.8,12.821 -5,25.781 -9.69,38.91 l 42.34,8.442 42.35,8.75 c -4.69,-9.5 -8.05,-20 -10,-31.571 -1.88,-11.558 -2.82,-27.421 -2.82,-47.5 v -100 l 43.44,50.629 c 13.44,3.942 26.56,5.942 39.38,5.942 33.32,0 59.06,-11.02 77.18,-32.969 18.13,-21.883 27.19,-53.133 27.19,-93.754 0,-54.379 -16.21,-97.4569 -48.59,-129.2186 -32.31,-31.8008 -76.17,-47.6602 -131.57,-47.6602 h -78.9 c 4.69,9.0703 7.89,19.9219 9.69,32.6602 1.87,12.8125 2.81,30.8594 2.81,54.2187 z m 98.44,-280.9414 c 28.43,0 50.35,9.5703 65.78,28.75 15.5,19.2578 23.28,46.6404 23.28,82.1874 0,29.762 -6.41,53.363 -19.22,70.781 -12.74,17.5 -30,26.25 -51.88,26.25 -12.5,0 -25.89,-2.621 -40.15,-7.808 l -16.88,-7.5 V 56.0195 c 11.14,-2.9297 24.14,-4.3789 39.07,-4.3789 z" /><path
         id="path38"
         style="fill:#2485b5;fill-opacity:1;fill-rule:nonzero;stroke:none"
         d="m 4090.35,36.6406 c -24.18,-12.4218 -45.58,-20.9414 -64.22,-25.6211 -18.55,-4.57028 -40.47,-6.87887 -65.78,-6.87887 -61.25,0 -112.26,20.03907 -152.97,60.16017 -40.74,40.0782 -61.09,90.3472 -61.09,150.7772 0,66.133 21.56,121.094 64.69,164.844 43.2,43.75 97.38,65.629 162.5,65.629 20.5,0 39.37,-1.531 56.56,-4.531 17.26,-3.051 35.04,-7.969 53.28,-14.848 v -70.781 c -16.56,12.269 -34.96,21.718 -55.16,28.281 -20.11,6.558 -40.86,9.848 -62.18,9.848 -42.62,0 -78.09,-16.059 -106.41,-48.129 -28.36,-31.993 -42.5,-72.153 -42.5,-120.469 0,-48.442 13.32,-88.711 40,-120.781 26.76,-32.1097 60.16,-48.1215 100.16,-48.1215 26.95,0 50.86,3.9024 71.72,11.711 20.93,7.8906 42.5,21.0195 64.68,39.3785 z" /><path
         id="path40"
         style="fill:#2485b5;fill-opacity:1;fill-rule:nonzero;stroke:none"
         d="m 4251.05,4.14063 c -37.5,0 -68.75,13.82817 -93.75,41.55857 -25,27.8203 -37.5,62.6988 -37.5,104.6918 0,46.949 13.91,86.019 41.72,117.191 27.82,31.129 62.54,46.719 104.22,46.719 37.7,0 68.99,-13.992 93.91,-41.879 24.88,-27.813 37.34,-62.652 37.34,-104.531 0,-47.11 -13.87,-86.1722 -41.56,-117.1918 C 4327.7,19.6484 4292.93,4.14063 4251.05,4.14063 Z m 32.04,41.55857 c 16.01,6.7617 28.75,19.1016 38.12,37.0313 9.38,17.8905 14.06,38.9105 14.06,62.9685 0,37.891 -9.14,68.281 -27.34,91.102 -18.24,22.89 -42.93,34.879 -74.06,35.929 -16.06,-6.558 -28.75,-18.898 -38.13,-37.031 -9.37,-18.121 -14.06,-39.219 -14.06,-63.277 0,-37.813 9.1,-68.121 27.34,-90.9415 18.21,-22.8086 42.89,-34.7617 74.07,-35.7813 z" /><path
         id="path42"
         style="fill:#2485b5;fill-opacity:1;fill-rule:nonzero;stroke:none"
         d="m 4499.92,96.8008 c 13.01,0 23.95,-4.5313 32.81,-13.6016 8.95,-8.9804 13.44,-19.9179 13.44,-32.8086 0,-13.0508 -4.49,-24.0195 -13.44,-32.9687 -8.86,-8.83206 -19.8,-13.28127 -32.81,-13.28127 -12.93,0 -23.87,4.44921 -32.81,13.28127 -8.87,8.9492 -13.28,19.9179 -13.28,32.9687 0,12.8907 4.41,23.8282 13.28,32.8086 8.94,9.0703 19.88,13.6016 32.81,13.6016 z" /></g></g></svg>